<svg width="38" height="30" viewBox="0 0 38 30" fill="none" xmlns="http://www.w3.org/2000/svg">
<rect width="38" height="30" rx="6" fill="#003399"/>
<path d="M19.0002 5.14307L18.5486 6.53151L19.2436 6.75707L19.0002 5.14307Z" fill="#FFCC00"/>
<path d="M19.0002 5.14307L19.4519 6.53151L18.7569 6.75707L19.0002 5.14307Z" fill="#FFCC00"/>
<path d="M20.3904 6.15234L18.9563 6.20886L18.9288 6.88229L20.3904 6.15234Z" fill="#FFCC00"/>
<path d="M20.3904 6.12256L19.1824 7.01056L18.7783 6.44991L20.3904 6.12256Z" fill="#FFCC00"/>
<path d="M19.8594 7.76807L19.4311 6.3961L18.7127 6.63814L19.8594 7.76807Z" fill="#FFCC00"/>
<path d="M19.843 7.78467L18.677 6.94507L19.123 6.33602L19.843 7.78467Z" fill="#FFCC00"/>
<path d="M17.6099 6.15234L19.0439 6.20886L19.0715 6.88229L17.6099 6.15234Z" fill="#FFCC00"/>
<path d="M17.6099 6.12256L18.8179 7.01056L19.2219 6.44991L17.6099 6.12256Z" fill="#FFCC00"/>
<path d="M18.1409 7.76807L18.5691 6.3961L19.2876 6.63814L18.1409 7.76807Z" fill="#FFCC00"/>
<path d="M18.1572 7.78467L19.3233 6.94507L18.8773 6.33602L18.1572 7.78467Z" fill="#FFCC00"/>
<path d="M19.0002 22.6621L18.5486 24.0506L19.2436 24.2761L19.0002 22.6621Z" fill="#FFCC00"/>
<path d="M19.0002 22.6621L19.4519 24.0506L18.7569 24.2761L19.0002 22.6621Z" fill="#FFCC00"/>
<path d="M20.3904 23.6704L18.9563 23.7269L18.9288 24.4004L20.3904 23.6704Z" fill="#FFCC00"/>
<path d="M20.3904 23.6406L19.1824 24.5286L18.7783 23.968L20.3904 23.6406Z" fill="#FFCC00"/>
<path d="M19.8594 25.2861L19.4311 23.9142L18.7127 24.1562L19.8594 25.2861Z" fill="#FFCC00"/>
<path d="M19.843 25.3027L18.677 24.4631L19.123 23.8541L19.843 25.3027Z" fill="#FFCC00"/>
<path d="M17.6099 23.6704L19.0439 23.7269L19.0715 24.4004L17.6099 23.6704Z" fill="#FFCC00"/>
<path d="M17.6099 23.6406L18.8179 24.5286L19.2219 23.968L17.6099 23.6406Z" fill="#FFCC00"/>
<path d="M18.1409 25.2861L18.5691 23.9142L19.2876 24.1562L18.1409 25.2861Z" fill="#FFCC00"/>
<path d="M18.1572 25.3027L19.3233 24.4631L18.8773 23.8541L18.1572 25.3027Z" fill="#FFCC00"/>
<path d="M10.2305 13.9023L9.7788 15.2908L10.4738 15.5164L10.2305 13.9023Z" fill="#FFCC00"/>
<path d="M10.2305 13.9023L10.6821 15.2908L9.98709 15.5164L10.2305 13.9023Z" fill="#FFCC00"/>
<path d="M11.6206 14.9111L10.1865 14.9676L10.159 15.6411L11.6206 14.9111Z" fill="#FFCC00"/>
<path d="M11.6206 14.8813L10.4126 15.7693L10.0086 15.2087L11.6206 14.8813Z" fill="#FFCC00"/>
<path d="M11.0896 16.5273L10.6613 15.1554L9.9429 15.3974L11.0896 16.5273Z" fill="#FFCC00"/>
<path d="M11.0732 16.5439L9.90721 15.7043L10.3532 15.0953L11.0732 16.5439Z" fill="#FFCC00"/>
<path d="M8.84009 14.9111L10.2742 14.9676L10.3017 15.6411L8.84009 14.9111Z" fill="#FFCC00"/>
<path d="M8.84009 14.8813L10.0481 15.7693L10.4521 15.2087L8.84009 14.8813Z" fill="#FFCC00"/>
<path d="M9.37109 16.5273L9.79935 15.1554L10.5178 15.3974L9.37109 16.5273Z" fill="#FFCC00"/>
<path d="M9.38745 16.5439L10.5535 15.7043L10.1075 15.0953L9.38745 16.5439Z" fill="#FFCC00"/>
<path d="M13.7734 8.95703L14.9387 8.11835L14.4919 7.50839L13.7734 8.95703Z" fill="#FFCC00"/>
<path d="M13.7563 8.93994L14.1835 7.56878L14.9031 7.81163L13.7563 8.93994Z" fill="#FFCC00"/>
<path d="M13.2251 7.30957L14.4219 8.18344L14.8371 7.60866L13.2251 7.30957Z" fill="#FFCC00"/>
<path d="M13.2251 7.32568L14.6711 7.35617L14.6867 8.05563L13.2251 7.32568Z" fill="#FFCC00"/>
<path d="M14.5908 6.31641L14.1634 7.68735L14.8827 7.93041L14.5908 6.31641Z" fill="#FFCC00"/>
<path d="M14.5918 6.31641L15.0668 7.72225L14.3951 7.93041L14.5918 6.31641Z" fill="#FFCC00"/>
<path d="M15.4897 8.95703L14.2919 8.08172L14.7061 7.50839L15.4897 8.95703Z" fill="#FFCC00"/>
<path d="M15.4744 8.97266L15.0013 7.56865L14.3277 7.77865L15.4744 8.97266Z" fill="#FFCC00"/>
<path d="M16.0054 7.33789L14.8343 8.18262L14.3933 7.57871L16.0054 7.33789Z" fill="#FFCC00"/>
<path d="M15.9929 7.3501L14.5436 7.32453L14.5559 8.02891L15.9929 7.3501Z" fill="#FFCC00"/>
<path d="M12.2644 12.1455L11.8373 10.7743L11.1177 11.0172L12.2644 12.1455Z" fill="#FFCC00"/>
<path d="M12.2471 12.1631L11.0818 11.3244L11.5286 10.7144L12.2471 12.1631Z" fill="#FFCC00"/>
<path d="M10.531 12.1626L11.7289 11.2873L11.3147 10.714L10.531 12.1626Z" fill="#FFCC00"/>
<path d="M10.5461 12.1782L11.0192 10.7742L11.6928 10.9842L10.5461 12.1782Z" fill="#FFCC00"/>
<path d="M10.0151 10.5444L11.1863 11.3892L11.6272 10.7853L10.0151 10.5444Z" fill="#FFCC00"/>
<path d="M10.0276 10.5566L11.4769 10.5311L11.4646 11.2355L10.0276 10.5566Z" fill="#FFCC00"/>
<path d="M12.7954 10.5146L11.5986 11.3885L11.1834 10.8137L12.7954 10.5146Z" fill="#FFCC00"/>
<path d="M12.7954 10.5308L11.3494 10.5612L11.3338 11.2607L12.7954 10.5308Z" fill="#FFCC00"/>
<path d="M11.4297 9.52148L11.8571 10.8924L11.1378 11.1355L11.4297 9.52148Z" fill="#FFCC00"/>
<path d="M11.4287 9.52148L10.9537 10.9273L11.6254 11.1355L11.4287 9.52148Z" fill="#FFCC00"/>
<path d="M12.7954 19.291L11.3715 19.3698L11.3338 20.021L12.7954 19.291Z" fill="#FFCC00"/>
<path d="M12.7954 19.248L11.5777 20.1486L11.1834 19.6006L12.7954 19.248Z" fill="#FFCC00"/>
<path d="M12.2646 20.8765L11.8752 19.5342L11.1179 19.806L12.2646 20.8765Z" fill="#FFCC00"/>
<path d="M12.2219 20.9224L11.0823 20.117L11.5547 19.4737L12.2219 20.9224Z" fill="#FFCC00"/>
<path d="M10.5215 20.9224L11.7289 20.0325L11.3243 19.4737L10.5215 20.9224Z" fill="#FFCC00"/>
<path d="M10.5464 20.9517L11.0325 19.5343L11.6931 19.7309L10.5464 20.9517Z" fill="#FFCC00"/>
<path d="M11.4536 18.2812L11.857 19.6273L11.1136 19.8953L11.4536 18.2812Z" fill="#FFCC00"/>
<path d="M11.4502 18.2812L10.9537 19.7116L11.6039 19.8953L11.4502 18.2812Z" fill="#FFCC00"/>
<path d="M10.0271 19.3286L11.4768 19.2901L11.465 19.9816L10.0271 19.3286Z" fill="#FFCC00"/>
<path d="M10.0151 19.311L11.1866 20.1486L11.6272 19.5376L10.0151 19.311Z" fill="#FFCC00"/>
<path d="M16.0054 22.4966L14.5814 22.5753L14.5438 23.2265L16.0054 22.4966Z" fill="#FFCC00"/>
<path d="M16.0054 22.4536L14.7877 23.3542L14.3933 22.8062L16.0054 22.4536Z" fill="#FFCC00"/>
<path d="M15.4744 24.0825L15.0849 22.7403L14.3277 23.012L15.4744 24.0825Z" fill="#FFCC00"/>
<path d="M15.4316 24.1284L14.292 23.323L14.7644 22.6798L15.4316 24.1284Z" fill="#FFCC00"/>
<path d="M13.7312 24.1284L14.9386 23.2385L14.534 22.6798L13.7312 24.1284Z" fill="#FFCC00"/>
<path d="M13.7563 24.1577L14.2424 22.7403L14.9031 22.9369L13.7563 24.1577Z" fill="#FFCC00"/>
<path d="M14.6636 21.4878L15.0669 22.8339L14.3236 23.1018L14.6636 21.4878Z" fill="#FFCC00"/>
<path d="M14.6602 21.4878L14.1637 22.9182L14.8139 23.1018L14.6602 21.4878Z" fill="#FFCC00"/>
<path d="M13.2373 22.5352L14.687 22.4967L14.6752 23.1881L13.2373 22.5352Z" fill="#FFCC00"/>
<path d="M13.2253 22.5171L14.3968 23.3547L14.8374 22.7436L13.2253 22.5171Z" fill="#FFCC00"/>
<path d="M27.7698 13.9019L28.2214 15.2903L27.5264 15.5159L27.7698 13.9019Z" fill="#FFCC00"/>
<path d="M27.7698 13.9019L27.3181 15.2903L28.0132 15.5159L27.7698 13.9019Z" fill="#FFCC00"/>
<path d="M26.3796 14.9106L27.8137 14.9672L27.8413 15.6406L26.3796 14.9106Z" fill="#FFCC00"/>
<path d="M26.3796 14.8809L27.5877 15.7689L27.9917 15.2082L26.3796 14.8809Z" fill="#FFCC00"/>
<path d="M26.9106 16.5269L27.3389 15.1549L28.0573 15.3969L26.9106 16.5269Z" fill="#FFCC00"/>
<path d="M26.927 16.5435L28.093 15.7039L27.647 15.0948L26.927 16.5435Z" fill="#FFCC00"/>
<path d="M29.1602 14.9106L27.7261 14.9672L27.6985 15.6406L29.1602 14.9106Z" fill="#FFCC00"/>
<path d="M29.1602 14.8809L27.9521 15.7689L27.5481 15.2082L29.1602 14.8809Z" fill="#FFCC00"/>
<path d="M28.6292 16.5269L28.2009 15.1549L27.4824 15.3969L28.6292 16.5269Z" fill="#FFCC00"/>
<path d="M28.6128 16.5435L27.4468 15.7039L27.8928 15.0948L28.6128 16.5435Z" fill="#FFCC00"/>
<path d="M24.2268 8.95703L23.0616 8.11835L23.5084 7.50839L24.2268 8.95703Z" fill="#FFCC00"/>
<path d="M24.2439 8.93994L23.8168 7.56878L23.0972 7.81163L24.2439 8.93994Z" fill="#FFCC00"/>
<path d="M24.7751 7.30957L23.5783 8.18344L23.1631 7.60866L24.7751 7.30957Z" fill="#FFCC00"/>
<path d="M24.7751 7.32568L23.3292 7.35617L23.3135 8.05563L24.7751 7.32568Z" fill="#FFCC00"/>
<path d="M23.4094 6.31641L23.8368 7.68735L23.1176 7.93041L23.4094 6.31641Z" fill="#FFCC00"/>
<path d="M23.4084 6.31641L22.9334 7.72225L23.6052 7.93041L23.4084 6.31641Z" fill="#FFCC00"/>
<path d="M22.5107 8.95703L23.7086 8.08172L23.2944 7.50839L22.5107 8.95703Z" fill="#FFCC00"/>
<path d="M22.5259 8.97266L22.9989 7.56865L23.6726 7.77865L22.5259 8.97266Z" fill="#FFCC00"/>
<path d="M21.9949 7.33789L23.166 8.18262L23.6069 7.57871L21.9949 7.33789Z" fill="#FFCC00"/>
<path d="M22.0073 7.3501L23.4566 7.32453L23.4444 8.02891L22.0073 7.3501Z" fill="#FFCC00"/>
<path d="M25.7358 12.1455L26.1629 10.7743L26.8825 11.0172L25.7358 12.1455Z" fill="#FFCC00"/>
<path d="M25.7532 12.1631L26.9184 11.3244L26.4716 10.7144L25.7532 12.1631Z" fill="#FFCC00"/>
<path d="M27.4692 12.1626L26.2714 11.2873L26.6856 10.714L27.4692 12.1626Z" fill="#FFCC00"/>
<path d="M27.4541 12.1782L26.9811 10.7742L26.3074 10.9842L27.4541 12.1782Z" fill="#FFCC00"/>
<path d="M27.9851 10.5444L26.814 11.3892L26.3731 10.7853L27.9851 10.5444Z" fill="#FFCC00"/>
<path d="M27.9727 10.5566L26.5233 10.5311L26.5356 11.2355L27.9727 10.5566Z" fill="#FFCC00"/>
<path d="M25.2048 10.5151L26.4017 11.389L26.8169 10.8142L25.2048 10.5151Z" fill="#FFCC00"/>
<path d="M25.2048 10.5312L26.6508 10.5617L26.6665 11.2612L25.2048 10.5312Z" fill="#FFCC00"/>
<path d="M26.5706 9.52197L26.1431 10.8929L26.8624 11.136L26.5706 9.52197Z" fill="#FFCC00"/>
<path d="M26.5715 9.52197L27.0465 10.9278L26.3748 11.136L26.5715 9.52197Z" fill="#FFCC00"/>
<path d="M25.2048 19.291L26.6288 19.3698L26.6665 20.021L25.2048 19.291Z" fill="#FFCC00"/>
<path d="M25.2048 19.248L26.4226 20.1486L26.8169 19.6006L25.2048 19.248Z" fill="#FFCC00"/>
<path d="M25.7356 20.8765L26.125 19.5342L26.8823 19.806L25.7356 20.8765Z" fill="#FFCC00"/>
<path d="M25.7786 20.9224L26.9182 20.117L26.4458 19.4737L25.7786 20.9224Z" fill="#FFCC00"/>
<path d="M27.4788 20.9224L26.2713 20.0325L26.676 19.4737L27.4788 20.9224Z" fill="#FFCC00"/>
<path d="M27.4539 20.9517L26.9678 19.5343L26.3072 19.7309L27.4539 20.9517Z" fill="#FFCC00"/>
<path d="M26.5466 18.2812L26.1433 19.6273L26.8866 19.8953L26.5466 18.2812Z" fill="#FFCC00"/>
<path d="M26.55 18.2812L27.0465 19.7116L26.3963 19.8953L26.55 18.2812Z" fill="#FFCC00"/>
<path d="M27.9731 19.3286L26.5234 19.2901L26.5353 19.9816L27.9731 19.3286Z" fill="#FFCC00"/>
<path d="M27.9851 19.311L26.8136 20.1486L26.3731 19.5376L27.9851 19.311Z" fill="#FFCC00"/>
<path d="M21.9951 22.4966L23.4191 22.5753L23.4567 23.2265L21.9951 22.4966Z" fill="#FFCC00"/>
<path d="M21.9951 22.4536L23.2128 23.3542L23.6071 22.8062L21.9951 22.4536Z" fill="#FFCC00"/>
<path d="M22.5259 24.0825L22.9153 22.7403L23.6726 23.012L22.5259 24.0825Z" fill="#FFCC00"/>
<path d="M22.5686 24.1284L23.7082 23.323L23.2358 22.6798L22.5686 24.1284Z" fill="#FFCC00"/>
<path d="M24.269 24.1284L23.0616 23.2385L23.4662 22.6798L24.269 24.1284Z" fill="#FFCC00"/>
<path d="M24.2441 24.1577L23.758 22.7403L23.0974 22.9369L24.2441 24.1577Z" fill="#FFCC00"/>
<path d="M23.3369 21.4873L22.9335 22.8334L23.6769 23.1013L23.3369 21.4873Z" fill="#FFCC00"/>
<path d="M23.3403 21.4873L23.8368 22.9177L23.1866 23.1013L23.3403 21.4873Z" fill="#FFCC00"/>
<path d="M24.7634 22.5347L23.3137 22.4962L23.3256 23.1876L24.7634 22.5347Z" fill="#FFCC00"/>
<path d="M24.7754 22.5166L23.6039 23.3542L23.1634 22.7431L24.7754 22.5166Z" fill="#FFCC00"/>
</svg>
