<svg width="54" height="54" viewBox="0 0 54 54" fill="none" xmlns="http://www.w3.org/2000/svg">
<rect width="54" height="54" rx="27" fill="#FFD6D6"/>
<path fill-rule="evenodd" clip-rule="evenodd" d="M19.3414 18.0167C18.976 17.6513 18.3836 17.6513 18.0182 18.0167C17.6528 18.382 17.6528 18.9743 18.0182 19.3396L25.6855 27.005L18.0182 34.6704C17.6528 35.0357 17.6528 35.628 18.0182 35.9933C18.3836 36.3586 18.976 36.3586 19.3414 35.9933L27.0087 28.3279L34.6718 35.9891C35.0372 36.3544 35.6297 36.3544 35.9951 35.9891C36.3605 35.6238 36.3605 35.0315 35.9951 34.6662L28.332 27.005L35.9951 19.3438C36.3605 18.9784 36.3605 18.3861 35.9951 18.0208C35.6297 17.6555 35.0372 17.6555 34.6718 18.0208L27.0087 25.6821L19.3414 18.0167Z" fill="#F13010"/>
</svg>
