<svg xmlns="http://www.w3.org/2000/svg" width="856" height="775" fill="none"><g clip-path="url(#a)"><path fill="#DCFF7C" d="m79.595 13.164 46.124 474.408L315.08 50.157 212.347 515.599 527.614 158.11l-241.54 410.915 410.31-242.57L339.688 642.62l465.18-103.907-436.931 190.465 474.521 44.93-474.409 46.123 437.412 189.359-465.439-102.731 357.491 315.271-410.92-241.536L529.168 1390.9l-316.17-356.69 103.911 465.18-190.467-436.94-44.93 474.52-46.123-474.41-189.364 437.42 102.734-465.45-315.265 357.5 241.535-410.918-410.305 242.568 356.693-316.163-465.181 103.903 436.936-190.465-474.524-44.923 474.409-46.13-437.415-189.361 465.442 102.733-357.49-315.265 410.916 241.535-242.571-410.305 316.166 356.693-103.908-465.181L34.665 487.687l44.93-474.523Z"/></g><defs><clipPath id="a"><path fill="#fff" d="M-695 26.605 829.218 0l26.594 1523.578-1524.218 26.605z"/></clipPath></defs></svg>