<svg width="30" height="30" viewBox="0 0 30 30" fill="none" xmlns="http://www.w3.org/2000/svg">
<path fill-rule="evenodd" clip-rule="evenodd" d="M7.34144 6.01666C6.97604 5.65135 6.3836 5.65135 6.01819 6.01666C5.65279 6.38198 5.65279 6.97427 6.01819 7.33958L13.6855 15.005L6.01819 22.6704C5.65279 23.0357 5.65279 23.628 6.01819 23.9933C6.3836 24.3586 6.97604 24.3586 7.34144 23.9933L15.0087 16.3279L22.6718 23.9891C23.0372 24.3544 23.6297 24.3544 23.9951 23.9891C24.3605 23.6238 24.3605 23.0315 23.9951 22.6662L16.332 15.005L23.9951 7.34375C24.3605 6.97844 24.3605 6.38614 23.9951 6.02083C23.6297 5.65551 23.0372 5.65551 22.6718 6.02083L15.0087 13.6821L7.34144 6.01666Z" fill="#F13010"/>
</svg>
