<svg xmlns="http://www.w3.org/2000/svg" width="40" height="40" fill="none" viewBox="0 0 40 40">
  <path fill="#fff"
        d="M21.715 3.333c1.875.005 2.827.015 3.648.039l.324.011c.373.014.741.03 1.186.05 1.774.084 2.984.364 4.045.775 1.1.424 2.027.997 2.954 1.922a8.18 8.18 0 0 1 1.921 2.953c.412 1.062.692 2.272.775 4.047.02.443.037.812.05 1.187l.01.323c.025.82.035 1.772.039 3.647l.001 1.243v2.183c.004 1.216-.008 2.432-.038 3.647l-.01.323c-.013.375-.03.744-.05 1.187-.083 1.775-.367 2.983-.777 4.047a8.138 8.138 0 0 1-1.921 2.953 8.192 8.192 0 0 1-2.954 1.922c-1.061.411-2.271.691-4.045.775-.395.018-.79.035-1.186.05l-.324.01c-.821.023-1.773.035-3.648.038l-1.243.002H18.29c-1.216.004-2.432-.009-3.648-.039l-.324-.01a106.78 106.78 0 0 1-1.186-.051c-1.774-.084-2.984-.364-4.047-.775a8.148 8.148 0 0 1-2.952-1.922 8.173 8.173 0 0 1-1.923-2.953c-.412-1.062-.692-2.272-.775-4.047-.019-.396-.035-.791-.05-1.187l-.008-.323c-.031-1.215-.045-2.431-.042-3.647v-3.426c-.005-1.216.008-2.432.037-3.647l.011-.323c.014-.375.03-.744.05-1.187.084-1.775.364-2.983.775-4.047A8.133 8.133 0 0 1 6.135 6.13a8.162 8.162 0 0 1 2.95-1.922c1.063-.411 2.272-.691 4.047-.775.443-.02.813-.036 1.186-.05l.324-.01c1.215-.03 2.43-.042 3.646-.038l3.427-.002Zm-1.713 8.334a8.333 8.333 0 1 0 0 16.666 8.333 8.333 0 0 0 0-16.666Zm0 3.333A5 5 0 1 1 20 25a5 5 0 0 1 .003-10m8.75-5.833a2.083 2.083 0 1 0 0 4.166 2.083 2.083 0 0 0 0-4.166Z"/>
</svg>
