<svg xmlns="http://www.w3.org/2000/svg" width="71" height="71" fill="none" viewBox="0 0 71 71">
  <path fill="#000"
        d="M27.644 8.104C12.538 12.435 3.772 28.249 8.104 43.355a28.23 28.23 0 0 0 5.549 10.457l1.507 14.012a2.59 2.59 0 0 0 3.706 2.054l12.68-6.147c3.958.559 7.926.278 11.81-.835 15.105-4.332 23.871-20.146 19.54-35.252C58.564 12.538 42.75 3.772 27.644 8.104Zm14.283 49.81a23.097 23.097 0 0 1-10.345.578 2.593 2.593 0 0 0-1.567.223L19.918 63.61l-1.2-11.157a2.592 2.592 0 0 0-.641-1.447 23.097 23.097 0 0 1-4.992-9.079C9.54 29.567 16.713 16.63 29.072 13.085c12.36-3.544 25.298 3.628 28.842 15.987 3.545 12.36-3.627 25.299-15.987 28.843Z"/>
  <path fill="#000"
        d="M22.333 36.58a2.61 2.61 0 0 0-1.552 1.234 2.61 2.61 0 0 0-.224 1.97 2.61 2.61 0 0 0 1.234 1.553 2.61 2.61 0 0 0 1.97.224 2.613 2.613 0 0 0 1.553-1.234c.33-.598.412-1.315.224-1.97a2.614 2.614 0 0 0-1.234-1.553 2.613 2.613 0 0 0-1.97-.224ZM34.785 33.009a2.61 2.61 0 0 0-1.552 1.234 2.613 2.613 0 0 0-.224 1.97c.188.657.638 1.221 1.234 1.553.598.33 1.315.412 1.97.224a2.613 2.613 0 0 0 1.553-1.234c.33-.598.412-1.315.224-1.97a2.613 2.613 0 0 0-1.234-1.553 2.613 2.613 0 0 0-1.97-.224ZM47.238 29.439a2.613 2.613 0 0 0-1.553 1.234 2.613 2.613 0 0 0-.224 1.97c.188.656.638 1.22 1.234 1.553.598.33 1.315.412 1.97.224a2.613 2.613 0 0 0 1.553-1.234c.33-.598.412-1.315.224-1.97a2.614 2.614 0 0 0-1.234-1.554 2.613 2.613 0 0 0-1.97-.223Z"/>
</svg>
