<svg width="40" height="40" viewBox="0 0 40 40" fill="none" xmlns="http://www.w3.org/2000/svg">
<path d="M20.0007 3.33325C29.2057 3.33325 36.6673 10.7949 36.6673 19.9999C36.6673 29.2049 29.2057 36.6666 20.0007 36.6666C17.0553 36.6713 14.1618 35.8919 11.6173 34.4083L3.34067 36.6666L5.59401 28.3866C4.10916 25.8414 3.32909 22.9466 3.33401 19.9999C3.33401 10.7949 10.7957 3.33325 20.0007 3.33325ZM14.3207 12.1666L13.9873 12.1799C13.7715 12.1931 13.5606 12.2498 13.3673 12.3466C13.1865 12.449 13.0215 12.577 12.8773 12.7266C12.6773 12.9149 12.564 13.0783 12.4423 13.2366C11.8259 14.0381 11.494 15.0221 11.499 16.0333C11.5023 16.8499 11.7157 17.6449 12.049 18.3883C12.7307 19.8916 13.8523 21.4833 15.3323 22.9583C15.689 23.3133 16.039 23.6699 16.4157 24.0016C18.2547 25.6207 20.4461 26.7883 22.8157 27.4116L23.7623 27.5566C24.0707 27.5733 24.379 27.5499 24.689 27.5349C25.1744 27.5099 25.6484 27.3784 26.0773 27.1499C26.2956 27.0375 26.5086 26.9151 26.7157 26.7833C26.7157 26.7833 26.7873 26.7366 26.924 26.6333C27.149 26.4666 27.2873 26.3483 27.474 26.1533C27.6123 26.0099 27.7323 25.8416 27.824 25.6499C27.954 25.3783 28.084 24.8599 28.1373 24.4283C28.1773 24.0983 28.1657 23.9183 28.1607 23.8066C28.154 23.6283 28.0057 23.4433 27.844 23.3649L26.874 22.9299C26.874 22.9299 25.424 22.2983 24.5373 21.8949C24.4446 21.8544 24.3451 21.8312 24.244 21.8266C24.13 21.8149 24.0148 21.8277 23.9061 21.8642C23.7974 21.9007 23.6978 21.9601 23.614 22.0382C23.6057 22.0349 23.494 22.1299 22.289 23.5899C22.2198 23.6829 22.1246 23.7531 22.0153 23.7917C21.9061 23.8303 21.7879 23.8355 21.6757 23.8066C21.5671 23.7775 21.4607 23.7407 21.3573 23.6966C21.1507 23.6099 21.079 23.5766 20.9373 23.5166C19.9808 23.0992 19.0952 22.5352 18.3123 21.8449C18.1023 21.6616 17.9073 21.4616 17.7073 21.2683C17.0517 20.6403 16.4802 19.9299 16.0073 19.1549L15.909 18.9966C15.8384 18.8902 15.7813 18.7754 15.739 18.6549C15.6757 18.4099 15.8407 18.2133 15.8407 18.2133C15.8407 18.2133 16.2457 17.7699 16.434 17.5299C16.6173 17.2966 16.7723 17.0699 16.8723 16.9083C17.069 16.5916 17.1307 16.2666 17.0273 16.0149C16.5607 14.8749 16.0773 13.7399 15.5807 12.6133C15.4823 12.3899 15.1907 12.2299 14.9257 12.1983C14.8357 12.1883 14.7457 12.1783 14.6557 12.1716C14.4319 12.1605 14.2076 12.1627 13.984 12.1783L14.3207 12.1666Z" fill="white"/>
</svg>
