<svg xmlns="http://www.w3.org/2000/svg" width="40" height="40" fill="none" viewBox="0 0 40 40">
  <g clip-path="url(#a)">
    <path fill="#fff" fill-rule="evenodd"
          d="M19.999 6.667c1.425 0 2.886.037 4.303.097l1.673.08 1.602.095 1.5.101 1.37.107a6.337 6.337 0 0 1 5.823 5.705l.067.708.125 1.517c.117 1.572.203 3.285.203 4.923a67.83 67.83 0 0 1-.203 4.924l-.125 1.516c-.022.244-.043.479-.067.709a6.337 6.337 0 0 1-5.825 5.705l-1.366.105-1.5.103-1.604.095-1.673.08c-1.434.062-2.868.094-4.303.097-1.435-.003-2.87-.035-4.304-.097l-1.673-.08-1.602-.095-1.5-.103-1.37-.105a6.337 6.337 0 0 1-5.823-5.705l-.067-.709-.125-1.516A67.772 67.772 0 0 1 3.332 20c0-1.638.087-3.351.203-4.923l.125-1.517c.022-.243.044-.478.067-.708a6.337 6.337 0 0 1 5.822-5.705l1.368-.107 1.5-.101 1.603-.095 1.674-.08c1.434-.063 2.87-.095 4.305-.097Zm-3.334 9.292v8.083a1 1 0 0 0 1.5.867l7-4.042a1 1 0 0 0 0-1.733l-7-4.04a1 1 0 0 0-1.5.866v-.001Z"
          clip-rule="evenodd"/>
  </g>
  <defs>
    <clipPath id="a">
      <path fill="#fff" d="M0 0h40v40H0z"/>
    </clipPath>
  </defs>
</svg>
